HIERARCHY
ROOT Hips
{
  OFFSET -564.517 92.7563 1370.58
  CHANNELS 6 Xposition Yposition Zposition Zrotation Xrotation Yrotation
  JOINT Spine
  {
    OFFSET -5.16951e-05 8 0.000156634
    CHANNELS 6 Xposition Yposition Zposition Zrotation Xrotation Yrotation
    JOINT Spine1
    {
      OFFSET -0.000515046 8 -0.000775552
      CHANNELS 6 Xposition Yposition Zposition Zrotation Xrotation Yrotation
      JOINT Spine2
      {
        OFFSET 0.000794378 8 0.000723488
        CHANNELS 6 Xposition Yposition Zposition Zrotation Xrotation Yrotation
        JOINT Spine3
        {
          OFFSET 0 8 0
          CHANNELS 6 Xposition Yposition Zposition Zrotation Xrotation Yrotation
          JOINT Neck
          {
            OFFSET -0.000144274 17.0003 -0.000267561
            CHANNELS 6 Xposition Yposition Zposition Zrotation Xrotation Yrotation
            JOINT Head
            {
              OFFSET 0.000312065 10.7999 0.000192166
              CHANNELS 6 Xposition Yposition Zposition Zrotation Xrotation Yrotation
              End Site
              {
                OFFSET 0 20.25 0
              }
            }
          }
          JOINT LeftShoulder
          {
            OFFSET 4.99995 17 -0.000371925
            CHANNELS 6 Xposition Yposition Zposition Zrotation Xrotation Yrotation
            JOINT LeftShoulder2
            {
              OFFSET 6.45 0 0
              CHANNELS 6 Xposition Yposition Zposition Zrotation Xrotation Yrotation
              JOINT LeftArm
              {
                OFFSET 6.44993 -0.000220447 0.000613662
                CHANNELS 6 Xposition Yposition Zposition Zrotation Xrotation Yrotation
                JOINT LeftForeArm
                {
                  OFFSET -0.0059724 -32.4105 -1.99049
                  CHANNELS 6 Xposition Yposition Zposition Zrotation Xrotation Yrotation
                  JOINT LeftHand
                  {
                    OFFSET 0.00274676 -25.6457 1.99402
                    CHANNELS 6 Xposition Yposition Zposition Zrotation Xrotation Yrotation
                    JOINT LeftHandThumb1
                    {
                      OFFSET -0.490599 -1.49093 2.63548
                      CHANNELS 6 Xposition Yposition Zposition Zrotation Xrotation Yrotation
                      JOINT LeftHandThumb2
                      {
                        OFFSET 0.000294124 -3.79829 3.7006
                        CHANNELS 6 Xposition Yposition Zposition Zrotation Xrotation Yrotation
                        JOINT LeftHandThumb3
                        {
                          OFFSET 3.21881e-05 -3.00022 2.69988
                          CHANNELS 6 Xposition Yposition Zposition Zrotation Xrotation Yrotation
                          End Site
                          {
                            OFFSET 0 -2.30059 1.80056
                          }
                        }
                      }
                    }
                    JOINT LeftHandIndex
                    {
                      OFFSET 0.000290692 -1.89976 1.6001
                      CHANNELS 6 Xposition Yposition Zposition Zrotation Xrotation Yrotation
                      JOINT LeftHandIndex1
                      {
                        OFFSET -0.00370036 -8.30349 1.90576
                        CHANNELS 6 Xposition Yposition Zposition Zrotation Xrotation Yrotation
                        JOINT LeftHandIndex2
                        {
                          OFFSET -0.000962401 -4.49967 0.00166471
                          CHANNELS 6 Xposition Yposition Zposition Zrotation Xrotation Yrotation
                          JOINT LeftHandIndex3
                          {
                            OFFSET 0.000927428 -3.39884 -0.00139946
                            CHANNELS 6 Xposition Yposition Zposition Zrotation Xrotation Yrotation
                            End Site
                            {
                              OFFSET -0.000275486 -2.60022 0.000714837
                            }
                          }
                        }
                      }
                    }
                    JOINT LeftHandMiddle
                    {
                      OFFSET -0.248174 -2.19907 0.396957
                      CHANNELS 6 Xposition Yposition Zposition Zrotation Xrotation Yrotation
                      JOINT LeftHandMiddle1
                      {
                        OFFSET -0.000100716 -8.29988 0.999836
                        CHANNELS 6 Xposition Yposition Zposition Zrotation Xrotation Yrotation
                        JOINT LeftHandMiddle2
                        {
                          OFFSET -0.00105409 -4.64995 0.00133581
                          CHANNELS 6 Xposition Yposition Zposition Zrotation Xrotation Yrotation
                          JOINT LeftHandMiddle3
                          {
                            OFFSET 0.000578705 -3.29999 0.00130378
                            CHANNELS 6 Xposition Yposition Zposition Zrotation Xrotation Yrotation
                            End Site
                            {
                              OFFSET 0.00136072 -2.70034 0.00170006
                            }
                          }
                        }
                      }
                    }
                    JOINT LeftHandRing
                    {
                      OFFSET -0.498861 -2.14924 -0.800355
                      CHANNELS 6 Xposition Yposition Zposition Zrotation Xrotation Yrotation
                      JOINT LeftHandRing1
                      {
                        OFFSET -0.00436775 -7.74957 -0.2026
                        CHANNELS 6 Xposition Yposition Zposition Zrotation Xrotation Yrotation
                        JOINT LeftHandRing2
                        {
                          OFFSET -0.00248017 -3.80636 0.00360817
                          CHANNELS 6 Xposition Yposition Zposition Zrotation Xrotation Yrotation
                          JOINT LeftHandRing3
                          {
                            OFFSET 7.59492e-05 -3.39976 0.000194208
                            CHANNELS 6 Xposition Yposition Zposition Zrotation Xrotation Yrotation
                            End Site
                            {
                              OFFSET -0.000283362 -2.60041 0.00111654
                            }
                          }
                        }
                      }
                    }
                    JOINT LeftHandPinky
                    {
                      OFFSET -0.74954 -1.74983 -1.85093
                      CHANNELS 6 Xposition Yposition Zposition Zrotation Xrotation Yrotation
                      JOINT LeftHandPinky1
                      {
                        OFFSET 3.95341e-05 -7.15086 -1.00043
                        CHANNELS 6 Xposition Yposition Zposition Zrotation Xrotation Yrotation
                        JOINT LeftHandPinky2
                        {
                          OFFSET -0.00157697 -2.99995 -0.00189633
                          CHANNELS 6 Xposition Yposition Zposition Zrotation Xrotation Yrotation
                          JOINT LeftHandPinky3
                          {
                            OFFSET -0.000470089 -2.34666 -0.00515226
                            CHANNELS 6 Xposition Yposition Zposition Zrotation Xrotation Yrotation
                            End Site
                            {
                              OFFSET -0.000988618 -2.10006 0.000575151
                            }
                          }
                        }
                      }
                    }
                  }
                }
              }
            }
          }
          JOINT RightShoulder
          {
            OFFSET -5.00019 17 -0.000217544
            CHANNELS 6 Xposition Yposition Zposition Zrotation Xrotation Yrotation
            JOINT RightShoulder2
            {
              OFFSET -6.45 0 0
              CHANNELS 6 Xposition Yposition Zposition Zrotation Xrotation Yrotation
              JOINT RightArm
              {
                OFFSET -6.44996 0.000104275 -0.000143997
                CHANNELS 6 Xposition Yposition Zposition Zrotation Xrotation Yrotation
                JOINT RightForeArm
                {
                  OFFSET -0.000907374 -32.3984 -1.99955
                  CHANNELS 6 Xposition Yposition Zposition Zrotation Xrotation Yrotation
                  JOINT RightHand
                  {
                    OFFSET 0.00115413 -25.6484 2.00389
                    CHANNELS 6 Xposition Yposition Zposition Zrotation Xrotation Yrotation
                    JOINT RightHandThumb1
                    {
                      OFFSET 0.499354 -1.50186 2.65043
                      CHANNELS 6 Xposition Yposition Zposition Zrotation Xrotation Yrotation
                      JOINT RightHandThumb2
                      {
                        OFFSET 0.000162626 -3.80008 3.69994
                        CHANNELS 6 Xposition Yposition Zposition Zrotation Xrotation Yrotation
                        JOINT RightHandThumb3
                        {
                          OFFSET 0.0094854 -2.99832 2.68606
                          CHANNELS 6 Xposition Yposition Zposition Zrotation Xrotation Yrotation
                          End Site
                          {
                            OFFSET -0.0110655 -2.28631 1.80819
                          }
                        }
                      }
                    }
                    JOINT RightHandIndex
                    {
                      OFFSET -0.000554638 -1.90012 1.60012
                      CHANNELS 6 Xposition Yposition Zposition Zrotation Xrotation Yrotation
                      JOINT RightHandIndex1
                      {
                        OFFSET -0.00147846 -8.30372 1.90086
                        CHANNELS 6 Xposition Yposition Zposition Zrotation Xrotation Yrotation
                        JOINT RightHandIndex2
                        {
                          OFFSET -0.000139712 -4.50015 -0.000626816
                          CHANNELS 6 Xposition Yposition Zposition Zrotation Xrotation Yrotation
                          JOINT RightHandIndex3
                          {
                            OFFSET 0.000279728 -3.40111 -0.00128873
                            CHANNELS 6 Xposition Yposition Zposition Zrotation Xrotation Yrotation
                            End Site
                            {
                              OFFSET -0.0012389 -2.60026 0.000256272
                            }
                          }
                        }
                      }
                    }
                    JOINT RightHandMiddle
                    {
                      OFFSET 0.24992 -2.19942 0.400641
                      CHANNELS 6 Xposition Yposition Zposition Zrotation Xrotation Yrotation
                      JOINT RightHandMiddle1
                      {
                        OFFSET 0.00199627 -8.30035 0.99764
                        CHANNELS 6 Xposition Yposition Zposition Zrotation Xrotation Yrotation
                        JOINT RightHandMiddle2
                        {
                          OFFSET 4.63764e-05 -4.65006 0.000291556
                          CHANNELS 6 Xposition Yposition Zposition Zrotation Xrotation Yrotation
                          JOINT RightHandMiddle3
                          {
                            OFFSET 0.00481064 -3.30772 -0.00186509
                            CHANNELS 6 Xposition Yposition Zposition Zrotation Xrotation Yrotation
                            End Site
                            {
                              OFFSET -0.0114476 -2.6986 0.00731683
                            }
                          }
                        }
                      }
                    }
                    JOINT RightHandRing
                    {
                      OFFSET 0.497974 -2.14891 -0.798994
                      CHANNELS 6 Xposition Yposition Zposition Zrotation Xrotation Yrotation
                      JOINT RightHandRing1
                      {
                        OFFSET -0.00129126 -7.74964 -0.199024
                        CHANNELS 6 Xposition Yposition Zposition Zrotation Xrotation Yrotation
                        JOINT RightHandRing2
                        {
                          OFFSET -0.00156848 -3.79995 0.000415425
                          CHANNELS 6 Xposition Yposition Zposition Zrotation Xrotation Yrotation
                          JOINT RightHandRing3
                          {
                            OFFSET -0.000206816 -3.3997 0.000252864
                            CHANNELS 6 Xposition Yposition Zposition Zrotation Xrotation Yrotation
                            End Site
                            {
                              OFFSET -0.00317476 -2.60144 0.00123092
                            }
                          }
                        }
                      }
                    }
                    JOINT RightHandPinky
                    {
                      OFFSET 0.748158 -1.75411 -1.84913
                      CHANNELS 6 Xposition Yposition Zposition Zrotation Xrotation Yrotation
                      JOINT RightHandPinky1
                      {
                        OFFSET -0.00263234 -7.15694 -0.998814
                        CHANNELS 6 Xposition Yposition Zposition Zrotation Xrotation Yrotation
                        JOINT RightHandPinky2
                        {
                          OFFSET -0.000293539 -3.00051 -0.000418473
                          CHANNELS 6 Xposition Yposition Zposition Zrotation Xrotation Yrotation
                          JOINT RightHandPinky3
                          {
                            OFFSET 0.00104203 -2.35119 -0.00116512
                            CHANNELS 6 Xposition Yposition Zposition Zrotation Xrotation Yrotation
                            End Site
                            {
                              OFFSET 0.00583479 -2.0877 0.00365287
                            }
                          }
                        }
                      }
                    }
                  }
                }
              }
            }
          }
        }
      }
    }
  }
  JOINT LeftUpLeg
  {
    OFFSET 8.00005 0 -2.05333e-05
    CHANNELS 6 Xposition Yposition Zposition Zrotation Xrotation Yrotation
    JOINT LeftLeg
    {
      OFFSET -0.000438244 -45.0001 -0.999573
      CHANNELS 6 Xposition Yposition Zposition Zrotation Xrotation Yrotation
      JOINT LeftFoot
      {
        OFFSET -0.000577299 -40.9998 -2.00014
        CHANNELS 6 Xposition Yposition Zposition Zrotation Xrotation Yrotation
        JOINT LeftToeBase
        {
          OFFSET 0.000105803 -7.49995 12.5
          CHANNELS 6 Xposition Yposition Zposition Zrotation Xrotation Yrotation
          JOINT LeftFootToe
          {
            OFFSET 0 0 4
            CHANNELS 6 Xposition Yposition Zposition Zrotation Xrotation Yrotation
            End Site
            {
              OFFSET 0 0 0
            }
          }
        }
      }
    }
  }
  JOINT RightUpLeg
  {
    OFFSET -8.00005 0 2.05333e-05
    CHANNELS 6 Xposition Yposition Zposition Zrotation Xrotation Yrotation
    JOINT RightLeg
    {
      OFFSET -0.000142159 -45.0001 -1.00022
      CHANNELS 6 Xposition Yposition Zposition Zrotation Xrotation Yrotation
      JOINT RightFoot
      {
        OFFSET 8.25402e-05 -41.0001 -2.00029
        CHANNELS 6 Xposition Yposition Zposition Zrotation Xrotation Yrotation
        JOINT RightToeBase
        {
          OFFSET -0.000221735 -7.50012 12.4999
          CHANNELS 6 Xposition Yposition Zposition Zrotation Xrotation Yrotation
          JOINT RightFootToe
          {
            OFFSET 0 0 4
            CHANNELS 6 Xposition Yposition Zposition Zrotation Xrotation Yrotation
            End Site
            {
              OFFSET 0 0 0
            }
          }
        }
      }
    }
  }
}
MOTION
Frames:	3
Frame Time:	0.0111111
-552.439 91.2865 1365.35 1.54547 5.67278 -111.608 0 8 2.27374e-13 7.7023 -1.70017 7.38777 0 8 -1.13687e-13 0.0188737 2.09395 2.08332 2.27374e-13 8 5.68434e-14 0.0365627 1.03621 1.04029 2.27374e-13 8 5.68434e-14 0.0196226 1.04506 1.04826 2.27374e-13 17 -5.68434e-14 4.75303 3.97489 8.12557 4.54747e-13 10.8 5.68434e-14 0.237781 -1.14407 19.4747 5 17 1.7053e-13 7.70973 3.8976 1.85754 6.45 0 0 -0.794818 -0.40629 0.653651 6.45 -8.52651e-14 -1.13687e-13 16.7341 -21.7629 44.8958 0 -32.4 -2 -73.3468 -11.2131 -45.4716 -2.27374e-13 -25.65 2 13.6516 8.28832 20.8261 -0.5 -1.5 2.65 -10.3793 -27.6623 2.53132 0 -3.8 3.7 19.5884 31.5915 2.29127 0 -3 2.7 -0.000675913 -0.0310753 0.0194816 0 -1.9 1.6 -3.18055e-15 -9.54166e-15 -3.18055e-15 0 -8.3 1.9 -12.6659 9.54309 1.2168 2.27374e-13 -4.5 0 -32.2114 -0.0137403 -0.0409069 1.13687e-13 -3.4 0 -23.3737 -0.00535565 -0.0612796 -0.25 -2.2 0.4 -3.18055e-15 -9.54166e-15 -3.18055e-15 2.27374e-13 -8.3 1 -44.9819 29.9962 15.2657 0 -4.65 1.13687e-13 -69.554 0.044 0.0179045 -1.13687e-13 -3.3 2.84217e-13 -89.9989 0.000413339 -0.000138745 -0.5 -2.15 -0.8 -3.18055e-15 -9.54166e-15 -3.18055e-15 -2.27374e-13 -7.75 -0.2 -32.0765 16.6671 6.10759 0 -3.8 0 -0.263093 0.0207908 -0.0320212 0 -3.4 -2.27374e-13 -53.3964 0.0398042 -0.00405309 -0.75 -1.75 -1.85 -3.18055e-15 -9.54166e-15 -3.18055e-15 0 -7.15 -1 -40.7405 16.0573 8.37401 -1.13687e-13 -3 -1.13687e-13 -0.0518506 -0.0863924 -0.0618229 0 -2.35 -1.13687e-13 0.0394103 -0.0720776 -0.0653688 -5 17 1.13687e-13 8.31883 6.6599 5.60046 -6.45 -1.13687e-13 -1.7053e-13 -1.1819 -0.211896 -2.79426 -6.45 2.84217e-14 -1.13687e-13 -51.8613 9.00143 -6.71522 -1.13687e-13 -32.4 -2 101.34 -56.3644 90.0508 -1.13687e-13 -25.65 2 -24.3607 14.5796 39.8434 0.5 -1.5 2.65 15.6072 72.9966 170.605 -5.68434e-14 -3.8 3.7 -0.324878 -1.09764 -0.55131 -1.7053e-13 -3 2.7 0.0305066 22.7622 -0.0229485 5.68434e-14 -1.9 1.6 -6.74695e-06 5.22341e-06 -1.54678e-06 1.13687e-13 -8.3 1.9 3.6619 4.07214 -0.141727 0 -4.5 2.27374e-13 26.9416 6.23165 0.0795399 5.68434e-13 -3.4 0 21.0429 0.0100292 0.00236576 0.25 -2.2 0.4 -6.74695e-06 5.22341e-06 -1.54678e-06 0 -8.3 1 12.1225 15.9703 -2.10237 1.13687e-13 -4.65 0 34.1339 16.8468 1.02789 5.68434e-14 -3.3 2.27374e-13 28.783 -0.0340202 -0.00235787 0.5 -2.15 -0.8 -6.74695e-06 5.22341e-06 -1.54678e-06 0 -7.75 -0.2 38.9882 17.5729 -8.08594 3.41061e-13 -3.8 0 14.8361 13.924 1.51043 1.7053e-13 -3.4 0 20.3995 0.141528 -0.00354507 0.75 -1.75 -1.85 -6.74695e-06 5.22341e-06 -1.54678e-06 5.68434e-14 -7.15 -1 48.2238 15.4868 -10.1031 0 -3 0 19.4958 12.7827 0.898225 0 -2.35 0 20.5178 0.034011 -0.0383363 8 0 2.27374e-13 27.5611 -21.5527 22.5026 0 -45 -1 -19.1013 7.30112 7.86691 0 -41 -2 10.1133 13.0945 2.05671 -4.54747e-13 -7.5 12.5 -5.92134e-05 1.96012e-05 0.01394 2.27374e-13 0 4 -0.102215 -7.00439 -2.44579 -8 -2.84217e-14 0 -3.13646 -11.0742 27.7949 0 -45 -1 -1.41482 -1.22741 -0.0744249 -2.27374e-13 -41 -2 21.341 7.51474 -31.1161 -4.54747e-13 -7.5 12.5 1.06985e-05 0.159549 -3.34119e-05 0 0 4 0.883775 -0.724554 34.8581 
-552.439 91.2866 1365.35 1.54147 5.67373 -111.585 -2.27374e-13 8 5.68434e-14 7.70013 -1.70982 7.37795 2.27374e-13 8 -5.68434e-14 0.0188737 2.09395 2.08332 -2.27374e-13 8 1.13687e-13 0.0365627 1.03621 1.04029 0 8 2.27374e-13 0.0195719 1.04494 1.04839 0 17 -2.27374e-13 4.7603 3.98741 8.12398 2.27374e-13 10.8 5.68434e-14 0.24464 -1.10163 19.4721 5 17 -1.13687e-13 7.7182 3.88915 1.8355 6.45 0 5.68434e-14 -0.789994 -0.408769 0.64021 6.45 -5.68434e-14 -1.7053e-13 16.7483 -21.7567 44.9437 -1.13687e-13 -32.4 -2 -73.3682 -11.2139 -45.5105 0 -25.65 2 13.5364 8.32287 20.8796 -0.5 -1.5 2.65 -10.3261 -27.6846 2.57943 0 -3.8 3.7 19.5452 31.5567 2.30555 2.27374e-13 -3 2.7 -0.000675913 -0.0310753 0.0194816 2.27374e-13 -1.9 1.6 -3.18055e-15 -1.51076e-14 -6.36111e-15 0 -8.3 1.9 -12.5476 9.48948 1.19927 0 -4.5 0 -31.9777 -0.0137403 -0.0409069 0 -3.4 0 -23.2342 -0.00535565 -0.0612796 -0.25 -2.2 0.4 -3.18055e-15 -1.51076e-14 -6.36111e-15 2.27374e-13 -8.3 1 -44.796 30.0113 15.2029 0 -4.65 1.13687e-13 -69.6626 0.044 0.0179045 0 -3.3 2.27374e-13 -89.9989 0.000413339 -0.000138745 -0.5 -2.15 -0.8 -3.18055e-15 -1.51076e-14 -6.36111e-15 -2.27374e-13 -7.75 -0.2 -31.9292 16.6374 6.06679 -1.13687e-13 -3.8 -1.13687e-13 -0.263093 0.0207908 -0.0320212 -1.13687e-13 -3.4 -2.27374e-13 -53.4643 0.0398042 -0.00405309 -0.75 -1.75 -1.85 -3.18055e-15 -1.51076e-14 -6.36111e-15 -4.54747e-13 -7.15 -1 -40.6938 16.0909 8.37681 -1.13687e-13 -3 0 -0.0518524 -0.0880894 -0.0618229 0 -2.35 0 0.0394103 -0.0720776 -0.0653688 -5 17 -1.13687e-13 8.31644 6.65289 5.58862 -6.45 -8.52651e-14 -1.7053e-13 -1.18213 -0.211363 -2.80104 -6.45 -2.84217e-14 -1.13687e-13 -51.9066 8.84384 -6.76196 -2.27374e-13 -32.4 -2 101.6 -56.3812 90.4074 0 -25.65 2 -24.5887 14.5823 40.4471 0.5 -1.5 2.65 19.8129 72.7711 167.142 -1.13687e-13 -3.8 3.7 -0.324878 -1.09764 -0.55131 -1.13687e-13 -3 2.7 0.0304786 22.6979 -0.0229377 1.7053e-13 -1.9 1.6 -6.74695e-06 5.22341e-06 -1.54678e-06 5.68434e-14 -8.3 1.9 3.54747 3.96997 -0.135673 0 -4.5 0 27.4818 6.38119 0.0795628 5.68434e-13 -3.4 -2.27374e-13 21.3891 0.0100292 0.00236576 0.25 -2.2 0.4 -6.74695e-06 5.22341e-06 -1.54678e-06 -1.13687e-13 -8.3 1 11.9765 15.9262 -2.07282 5.68434e-14 -4.65 0 34.2906 16.9609 1.04363 -1.7053e-13 -3.3 2.27374e-13 28.9123 -0.0340202 -0.00235787 0.5 -2.15 -0.8 -6.74695e-06 5.22341e-06 -1.54678e-06 1.13687e-13 -7.75 -0.2 38.6718 17.5767 -8.00961 2.84217e-13 -3.8 -2.27374e-13 14.8994 13.9954 1.52662 1.7053e-13 -3.4 2.27374e-13 20.4787 0.141528 -0.00354507 0.75 -1.75 -1.85 -6.74695e-06 5.22341e-06 -1.54678e-06 5.68434e-14 -7.15 -1 48.0653 15.5938 -10.1122 5.68434e-14 -3 0 19.432 12.7293 0.884858 0 -2.35 0 20.4576 0.034011 -0.0383363 8 0 5.68434e-14 27.5446 -21.543 22.5396 0 -45 -1 -19.0913 7.29097 7.86137 -2.27374e-13 -41 -2 10.1294 13.1154 2.00491 -4.54747e-13 -7.5 12.5 -5.92134e-05 1.96012e-05 0.01394 -2.27374e-13 0 4 -0.103295 -7.01889 -2.44625 -8 0 -5.68434e-14 -3.1427 -11.0671 27.8074 0 -45 -1 -1.41482 -1.22741 -0.0744249 0 -41 -2 21.3445 7.49927 -31.1285 0 -7.5 12.5 1.06985e-05 0.159549 -3.34119e-05 0 -2.84217e-14 4 0.882818 -0.723612 34.8427 
-552.438 91.2867 1365.36 1.53746 5.67468 -111.562 0 8 1.13687e-13 7.69796 -1.71946 7.36813 0 8 0 0.0188737 2.09395 2.08332 2.27374e-13 8 0 0.0365627 1.03621 1.04029 0 8 0 0.0195197 1.04482 1.04855 0 17 0 4.76757 3.99993 8.12239 4.54747e-13 10.8 -5.68434e-14 0.251504 -1.05919 19.4695 5 17 5.68434e-14 7.72666 3.88069 1.81346 6.45 -2.84217e-14 1.13687e-13 -0.785604 -0.411463 0.630012 6.45 -5.68434e-14 0 16.7625 -21.7505 44.9917 -2.27374e-13 -32.4 -2 -73.3897 -11.2146 -45.5494 -2.27374e-13 -25.65 2 13.4211 8.35738 20.9331 -0.5 -1.5 2.65 -10.2728 -27.7069 2.62756 -2.27374e-13 -3.8 3.7 19.502 31.522 2.31982 2.27374e-13 -3 2.7 -0.000675913 -0.0310753 0.0194816 2.27374e-13 -1.9 1.6 -1.27222e-14 -1.19271e-14 -6.36111e-15 0 -8.3 1.9 -12.4294 9.43587 1.18174 2.27374e-13 -4.5 1.13687e-13 -31.7441 -0.0137403 -0.0409069 0 -3.4 0 -23.0947 -0.00535565 -0.0612796 -0.25 -2.2 0.4 -1.27222e-14 -1.19271e-14 -6.36111e-15 2.27374e-13 -8.3 1 -44.6101 30.0264 15.1401 1.13687e-13 -4.65 1.13687e-13 -69.7713 0.044 0.0179045 0 -3.3 3.41061e-13 -89.9989 0.000413339 -0.000138745 -0.5 -2.15 -0.8 -1.27222e-14 -1.19271e-14 -6.36111e-15 0 -7.75 -0.2 -31.7819 16.6077 6.02601 -1.13687e-13 -3.8 1.13687e-13 -0.263093 0.0207908 -0.0320212 -1.13687e-13 -3.4 -3.41061e-13 -53.5322 0.0398042 -0.00405309 -0.75 -1.75 -1.85 -1.27222e-14 -1.19271e-14 -6.36111e-15 -2.27374e-13 -7.15 -1 -40.6472 16.1245 8.37962 -1.13687e-13 -3 0 -0.0518542 -0.0897863 -0.0618229 -1.13687e-13 -2.35 -1.13687e-13 0.0394103 -0.0720776 -0.0653688 -5 17 -1.13687e-13 8.31404 6.64588 5.57678 -6.45 -8.52651e-14 -2.84217e-13 -1.18234 -0.210823 -2.80654 -6.45 0 -5.68434e-14 -51.9523 8.68629 -6.80872 1.13687e-13 -32.4 -2 101.861 -56.3965 90.7645 -1.13687e-13 -25.65 2 -24.8178 14.5815 41.0507 0.5 -1.5 2.65 23.9203 72.4881 163.777 -1.7053e-13 -3.8 3.7 -0.324878 -1.09764 -0.55131 0 -3 2.7 0.0304507 22.6335 -0.022927 0 -1.9 1.6 -6.74695e-06 5.22341e-06 -1.54678e-06 -5.68434e-14 -8.3 1.9 3.43306 3.86781 -0.129621 -5.68434e-14 -4.5 0 28.022 6.53074 0.0795863 5.68434e-13 -3.4 0 21.7353 0.0100292 0.00236576 0.25 -2.2 0.4 -6.74695e-06 5.22341e-06 -1.54678e-06 -5.68434e-14 -8.3 1 11.8305 15.8821 -2.04327 5.68434e-14 -4.65 2.27374e-13 34.4471 17.0749 1.05938 0 -3.3 0 29.0416 -0.0340202 -0.00235787 0.5 -2.15 -0.8 -6.74695e-06 5.22341e-06 -1.54678e-06 5.68434e-14 -7.75 -0.2 38.3554 17.5805 -7.93328 2.84217e-13 -3.8 0 14.9626 14.0668 1.54282 2.27374e-13 -3.4 0 20.5578 0.141528 -0.00354507 0.75 -1.75 -1.85 -6.74695e-06 5.22341e-06 -1.54678e-06 5.68434e-14 -7.15 -1 47.9068 15.7009 -10.1213 5.68434e-14 -3 2.27374e-13 19.3683 12.6758 0.871498 5.68434e-14 -2.35 0 20.3974 0.034011 -0.0383363 8 0 5.68434e-14 27.5282 -21.5332 22.5766 -2.27374e-13 -45 -1 -19.0812 7.28083 7.85583 0 -41 -2 10.1455 13.1362 1.9531 -4.54747e-13 -7.5 12.5 -5.92134e-05 1.96012e-05 0.01394 2.27374e-13 1.42109e-14 4 -0.104506 -7.03348 -2.44672 -8 0 0 -3.14895 -11.06 27.8198 0 -45 -1 -1.41482 -1.22741 -0.0744249 -2.27374e-13 -41 -2 21.3481 7.4838 -31.1409 0 -7.5 12.5 1.06985e-05 0.159549 -3.34119e-05 -2.27374e-13 2.84217e-14 4 0.88033 -0.723339 34.8259 
